<?xml version="1.0" standalone="no"?>
<!DOCTYPE svg PUBLIC "-//W3C//DTD SVG 20010904//EN"
 "http://www.w3.org/TR/2001/REC-SVG-20010904/DTD/svg10.dtd">
<svg version="1.0" xmlns="http://www.w3.org/2000/svg"
 width="168.000000pt" height="168.000000pt" viewBox="0 0 168.000000 168.000000"
 preserveAspectRatio="xMidYMid meet">
<metadata>
Created by potrace 1.11, written by Peter Selinger 2001-2013
</metadata>
<g transform="translate(0.000000,168.000000) scale(0.100000,-0.100000)"
fill="#000000" stroke="none">
<path d="M922 1243 c-17 -43 -80 -211 -142 -373 -61 -162 -115 -299 -120 -303
-4 -5 -41 2 -81 14 -41 13 -76 24 -79 24 -4 1 -145 44 -247 76 -28 9 -32 14
-31 44 l1 34 185 65 c102 36 186 67 187 68 5 8 65 181 65 188 0 4 -118 -35
-262 -87 -145 -52 -289 -104 -321 -115 -36 -13 -57 -26 -58 -37 0 -9 -1 -70
-1 -135 l-1 -120 199 -62 c110 -34 278 -87 374 -117 96 -31 176 -54 178 -52 2
2 67 167 144 367 77 200 142 365 144 367 4 5 86 -22 289 -95 88 -31 90 -32 93
-66 l3 -35 -173 -56 -174 -56 -28 -88 c-16 -49 -31 -94 -33 -100 -3 -8 20 -4
64 12 458 160 558 197 563 205 5 8 6 236 1 261 0 4 -25 14 -53 24 -29 9 -187
64 -351 121 -164 57 -299 104 -302 104 -2 0 -17 -35 -33 -77z"/>
</g>
</svg>
